# xmcd CD database file
#
# Track frame offsets:
#	225
#	18150
#	41192
#	60205
#	75267
#	94212
#	109130
#	125022
#	148665
#
# Disc length: 2183 seconds
#
# Revision: 0
# Processed by: cddbd v1.4PL0 Copyright (c) Steve Scherf et al.
# Submitted via: CDex 1.50
#
DISCID=6f088409
DTITLE=Earl "Fatha" Hines - Fatha's Blues
DYEAR=1996
DGENRE=Jazz
TTITLE0=Undecided
TTITLE1=Fatha's Blues
TTITLE2=A Sunday Kind of LOve
TTITLE3=I've Found A New Baby
TTITLE4=Squeeze Me
TTITLE5=Tosca's Dance
TTITLE6=Jim
TTITLE7=Black Coffee
TTITLE8=You Always Hurt The One You Love
EXTD=YEAR: 1996
EXTT0=
EXTT1=
EXTT2=
EXTT3=
EXTT4=
EXTT5=
EXTT6=
EXTT7=
EXTT8=
PLAYORDER=
